<svg width="99" height="22" viewBox="0 0 99 22" fill="none" xmlns="http://www.w3.org/2000/svg">
<path d="M2.62239 21.1382C1.87281 20.7236 1.31135 20.1697 0.938055 19.4736C0.564762 18.7775 0.376587 18.0269 0.376587 17.2187C0.376587 16.2502 0.643667 15.321 1.18084 14.4342C1.71802 13.5474 2.54656 12.821 3.66943 12.255C4.79239 11.6891 6.16415 11.4075 7.78176 11.4075C8.81364 11.4075 9.7696 11.5135 10.6497 11.7254C11.5299 11.9372 12.5678 12.2459 13.7605 12.6485C14.9532 13.051 15.9608 13.3598 16.7802 13.5716C17.5997 13.7835 18.495 13.8894 19.4661 13.8894C20.1551 13.8894 20.8713 13.8288 21.6209 13.7078C22.3675 13.5867 23.0382 13.396 23.6239 13.1327V14.1316C22.8561 14.7369 21.9335 15.2151 20.8622 15.5692C19.7879 15.9233 18.6983 16.0989 17.5845 16.0989C16.6133 16.0989 15.627 15.9839 14.6255 15.7508C13.6239 15.5177 12.3948 15.1697 10.9381 14.7066C9.58146 14.3222 8.57081 14.0498 7.90317 13.8894C7.23545 13.729 6.60724 13.6473 6.0215 13.6473C4.90773 13.6473 4.04277 13.9439 3.42669 14.5402C2.81062 15.1364 2.50098 15.8385 2.50098 16.6436C2.50098 17.1491 2.63149 17.6273 2.89555 18.0813C3.1596 18.5353 3.54204 18.8985 4.04883 19.1709C4.55563 19.4433 5.1717 19.5795 5.90009 19.5795C6.8713 19.5795 7.77266 19.286 8.60123 18.7018C9.42971 18.1177 10.3918 17.1067 11.4844 15.6752L23.1687 0.208984H25.8698V18.278C25.8698 19.0256 25.976 19.5432 26.1884 19.8368C26.4009 20.1303 26.7711 20.2756 27.2962 20.2756H27.9335V21.3955H20.1338V20.2756H21.196C21.7636 20.2756 22.1733 20.1243 22.4252 19.8216C22.6771 19.519 22.8046 19.0044 22.8046 18.278V2.38813L23.9274 1.84338L12.8197 16.6436C11.4631 18.4385 10.2157 19.7399 9.07162 20.548C7.92744 21.3561 6.66799 21.7587 5.29312 21.7587C4.26124 21.7587 3.37201 21.5529 2.62239 21.1382Z" fill="white"/>
<path d="M30.7375 20.7296C29.6358 20.0425 28.7587 19.0952 28.1122 17.8846C27.4658 16.6739 27.1411 15.321 27.1411 13.8288C27.1411 12.3367 27.4689 10.9839 28.1274 9.7732C28.786 8.56254 29.6813 7.61517 30.8134 6.92814C31.9453 6.24111 33.2109 5.89903 34.607 5.89903C35.9211 5.89903 37.1108 6.20781 38.173 6.82218C39.2352 7.43967 40.0637 8.29614 40.6616 9.39487C41.2564 10.4935 41.5569 11.7193 41.5569 13.0722L41.3141 14.2829C41.3141 15.775 41.0046 17.0886 40.3885 18.2175C39.7724 19.3464 38.9378 20.2211 37.8847 20.8355C36.8316 21.45 35.6692 21.7587 34.3946 21.7587C33.1199 21.7587 31.8391 21.4167 30.7375 20.7296ZM37.4901 18.2932C38.2397 17.8604 38.8194 17.255 39.2352 16.4771C39.651 15.6993 39.8573 14.8277 39.8573 13.8591C39.8573 12.8906 39.651 12.0189 39.2352 11.2411C38.8194 10.4633 38.2397 9.85788 37.4901 9.42507C36.7405 8.99233 35.912 8.77437 35.0015 8.77437C34.091 8.77437 33.2807 8.99233 32.5736 9.42507C31.8665 9.85788 31.308 10.4633 30.9044 11.2411C30.5007 12.0189 30.2974 12.8906 30.2974 13.8591C30.2974 14.8277 30.5007 15.6993 30.9044 16.4771C31.308 17.255 31.8665 17.8604 32.5736 18.2932C33.2807 18.726 34.091 18.9439 35.0015 18.9439C35.912 18.9439 36.7405 18.726 37.4901 18.2932ZM39.6449 17.8846L40.4036 17.0068V11.2865L39.5842 10.3785V0.208984H42.6495V21.3955H39.6449V17.8846Z" fill="white"/>
<path d="M44.4703 6.26227H47.5356V19.8821L46.959 19.3676L52.6646 13.3446L54.0607 14.071L47.0501 21.3954H44.4703V6.26227ZM52.8316 14.1164C51.8513 13.6624 51.0774 13.0177 50.5098 12.1794C49.9423 11.341 49.66 10.3694 49.66 9.25861C49.66 8.14785 49.9727 7.17929 50.6009 6.47409C51.2291 5.7689 52.088 5.41479 53.1806 5.41479C54.1912 5.41479 55.0106 5.72652 55.6389 6.353C56.2671 6.97957 56.5797 7.81493 56.5797 8.86515C56.5797 9.59153 56.3975 10.327 56.0334 11.0746C55.6692 11.8222 55.0926 12.6485 54.3035 13.5564L52.9074 12.8301C53.9605 11.6587 54.4856 10.4905 54.4856 9.31916C54.4856 8.61397 54.3186 8.03887 53.9848 7.59394C53.651 7.14909 53.2625 6.9281 52.8163 6.9281C52.4734 6.9281 52.179 7.07038 51.9362 7.35184C51.6935 7.63329 51.572 8.05703 51.572 8.62305C51.572 9.24953 51.7329 9.82766 52.0576 10.3633C52.3824 10.8991 52.8255 11.3258 53.393 11.6497C53.9605 11.9735 54.5675 12.1339 55.214 12.1339H58.8255V14.7974H56.1244C54.9105 14.7974 53.8118 14.5704 52.8316 14.1164Z" fill="white"/>
<path d="M61.0715 20.7297C59.8576 20.0427 58.8955 19.0953 58.1884 17.8846C57.4812 16.674 57.1261 15.3211 57.1261 13.829C57.1261 12.3368 57.4812 10.9839 58.1884 9.77326C58.8955 8.5626 59.8515 7.61522 61.0564 6.9282C62.2612 6.24117 63.5996 5.89917 65.0776 5.89917C66.5556 5.89917 67.8636 6.24117 69.0684 6.9282C70.2703 7.61522 71.2293 8.5626 71.9365 9.77326C72.6436 10.9839 72.9987 12.3368 72.9987 13.829C72.9987 14.0499 72.9775 14.3737 72.9379 14.7975H58.5222V12.134H71.8151L69.9031 13.829C69.9031 12.8392 69.6967 11.9524 69.2809 11.1655C68.8651 10.3786 68.2885 9.76721 67.551 9.33439C66.8135 8.90157 65.9881 8.68369 65.0776 8.68369C64.1671 8.68369 63.3173 8.9046 62.589 9.34952C61.8606 9.79445 61.29 10.4028 60.8742 11.1806C60.4585 11.9585 60.2521 12.8392 60.2521 13.829C60.2521 14.8187 60.4645 15.6994 60.8894 16.4773C61.3143 17.2551 61.897 17.8634 62.6345 18.3084C63.3719 18.7533 64.2187 18.9742 65.1686 18.9742C66.0578 18.9742 66.8682 18.7715 67.5966 18.3689C68.325 17.9664 68.9015 17.4004 69.3264 16.674H72.5738C72.0487 18.2085 71.111 19.4373 69.7665 20.3665C68.422 21.2957 66.8682 21.7587 65.1079 21.7587C63.6299 21.7587 62.2855 21.4167 61.0715 20.7297Z" fill="white"/>
<path d="M74.1519 6.26236H77.1263V10.6207L77.187 11.2867V21.3956H74.1519V6.26236ZM77.3837 7.77575C78.3642 6.5439 79.848 5.92944 81.8303 5.92944V8.8956H81.436C80.2005 8.8956 79.184 9.25879 78.3855 9.98517C77.587 10.7116 77.187 11.7013 77.187 12.9512H75.9121C75.9121 10.7327 76.4041 9.00752 77.3837 7.77575Z" fill="white"/>
<path d="M85.9882 21.3955H82.9836V0.208984H86.0489V10.3785L85.2299 11.2865V17.0068L85.9882 17.8846V21.3955ZM91.239 21.7587C89.9642 21.7587 88.8017 21.45 87.7491 20.8355C86.6957 20.2211 85.8611 19.3464 85.2446 18.2175C84.629 17.0886 84.3191 15.775 84.3191 14.2829L84.0764 13.0722C84.0764 11.7193 84.374 10.4935 84.9716 9.39487C85.5693 8.29614 86.3981 7.43967 87.4605 6.82218C88.523 6.20781 89.7125 5.89903 91.0266 5.89903C92.4228 5.89903 93.6877 6.24111 94.8198 6.92814C95.952 7.61517 96.8472 8.56254 97.5063 9.7732C98.1646 10.9839 98.4925 12.3367 98.4925 13.8288C98.4925 15.321 98.1679 16.6739 97.521 17.8846C96.875 19.0952 95.9979 20.0425 94.8961 20.7296C93.7943 21.4167 92.5744 21.7587 91.239 21.7587ZM90.6315 18.9439C91.5423 18.9439 92.3531 18.726 93.0597 18.2932C93.7672 17.8604 94.3255 17.255 94.7288 16.4771C95.133 15.6993 95.3363 14.8277 95.3363 13.8591C95.3363 12.8906 95.133 12.0189 94.7288 11.2411C94.3255 10.4633 93.7672 9.85788 93.0597 9.42507C92.3531 8.99233 91.5423 8.77437 90.6315 8.77437C89.7215 8.77437 88.8927 8.99233 88.1434 9.42507C87.3933 9.85788 86.8137 10.4633 86.3981 11.2411C85.9824 12.0189 85.7759 12.8906 85.7759 13.8591C85.7759 14.8277 85.9824 15.6993 86.3981 16.4771C86.8137 17.255 87.3933 17.8604 88.1434 18.2932C88.8927 18.726 89.7215 18.9439 90.6315 18.9439Z" fill="white"/>
</svg>
