<svg width="1098" height="500" viewBox="0 0 1098 500" fill="none" xmlns="http://www.w3.org/2000/svg">
<path fill-rule="evenodd" clip-rule="evenodd" d="M42.5 20C36.1487 20 31 25.102 31 31.3957V388.626C31 389.528 31.0658 390.415 31.1929 391.283C32.2158 404.615 37.9305 419.81 62.5843 426.777C90.6372 434.704 148.55 450.229 174 457C167.202 453.532 153.607 438.668 153.607 406.958C153.607 380.332 153.532 368.844 153.507 365.16C153.503 364.457 153.5 364.038 153.5 363.853V31.3957C153.5 25.102 148.351 20 142 20H42.5ZM43 44.7732C41.6193 44.7732 40.5 45.8824 40.5 47.2506V61.619C40.5 62.9872 41.6193 64.0964 43 64.0964H58.5C59.8807 64.0964 61 62.9872 61 61.619V47.2506C61 45.8824 59.8807 44.7732 58.5 44.7732H43ZM43 83.4195C41.6193 83.4195 40.5 84.5286 40.5 85.8968V100.265C40.5 101.633 41.6193 102.743 43 102.743H58.5C59.8807 102.743 61 101.633 61 100.265V85.8968C61 84.5286 59.8807 83.4195 58.5 83.4195H43ZM40.5 124.543C40.5 123.175 41.6193 122.066 43 122.066H58.5C59.8807 122.066 61 123.175 61 124.543V138.912C61 140.28 59.8807 141.389 58.5 141.389H43C41.6193 141.389 40.5 140.28 40.5 138.912V124.543ZM43 160.712C41.6193 160.712 40.5 161.821 40.5 163.189V177.558C40.5 178.926 41.6193 180.035 43 180.035H58.5C59.8807 180.035 61 178.926 61 177.558V163.189C61 161.821 59.8807 160.712 58.5 160.712H43ZM40.5 201.836C40.5 200.467 41.6193 199.358 43 199.358H58.5C59.8807 199.358 61 200.467 61 201.836V216.204C61 217.572 59.8807 218.681 58.5 218.681H43C41.6193 218.681 40.5 217.572 40.5 216.204V201.836ZM43 238.005C41.6193 238.005 40.5 239.114 40.5 240.482V254.85C40.5 256.219 41.6193 257.328 43 257.328H58.5C59.8807 257.328 61 256.219 61 254.85V240.482C61 239.114 59.8807 238.005 58.5 238.005H43ZM40.5 279.128C40.5 277.76 41.6193 276.651 43 276.651H58.5C59.8807 276.651 61 277.76 61 279.128V293.497C61 294.865 59.8807 295.974 58.5 295.974H43C41.6193 295.974 40.5 294.865 40.5 293.497V279.128ZM43 315.297C41.6193 315.297 40.5 316.406 40.5 317.774V332.143C40.5 333.511 41.6193 334.62 43 334.62H58.5C59.8807 334.62 61 333.511 61 332.143V317.774C61 316.406 59.8807 315.297 58.5 315.297H43ZM40.5 356.421C40.5 355.052 41.6193 353.943 43 353.943H58.5C59.8807 353.943 61 355.052 61 356.421V370.789C61 372.157 59.8807 373.266 58.5 373.266H43C41.6193 373.266 40.5 372.157 40.5 370.789V356.421ZM125.5 44.7732C124.119 44.7732 123 45.8824 123 47.2506V61.619C123 62.9872 124.119 64.0964 125.5 64.0964H141C142.381 64.0964 143.5 62.9872 143.5 61.619V47.2506C143.5 45.8824 142.381 44.7732 141 44.7732H125.5ZM123 85.8968C123 84.5286 124.119 83.4195 125.5 83.4195H141C142.381 83.4195 143.5 84.5286 143.5 85.8968V100.265C143.5 101.633 142.381 102.743 141 102.743H125.5C124.119 102.743 123 101.633 123 100.265V85.8968ZM125.5 122.066C124.119 122.066 123 123.175 123 124.543V138.912C123 140.28 124.119 141.389 125.5 141.389H141C142.381 141.389 143.5 140.28 143.5 138.912V124.543C143.5 123.175 142.381 122.066 141 122.066H125.5ZM123 163.189C123 161.821 124.119 160.712 125.5 160.712H141C142.381 160.712 143.5 161.821 143.5 163.189V177.558C143.5 178.926 142.381 180.035 141 180.035H125.5C124.119 180.035 123 178.926 123 177.558V163.189ZM125.5 199.358C124.119 199.358 123 200.467 123 201.836V216.204C123 217.572 124.119 218.681 125.5 218.681H141C142.381 218.681 143.5 217.572 143.5 216.204V201.836C143.5 200.467 142.381 199.358 141 199.358H125.5ZM123 240.482C123 239.114 124.119 238.005 125.5 238.005H141C142.381 238.005 143.5 239.114 143.5 240.482V254.85C143.5 256.219 142.381 257.328 141 257.328H125.5C124.119 257.328 123 256.219 123 254.85V240.482ZM125.5 276.651C124.119 276.651 123 277.76 123 279.128V293.497C123 294.865 124.119 295.974 125.5 295.974H141C142.381 295.974 143.5 294.865 143.5 293.497V279.128C143.5 277.76 142.381 276.651 141 276.651H125.5ZM123 317.774C123 316.406 124.119 315.297 125.5 315.297H141C142.381 315.297 143.5 316.406 143.5 317.774V332.143C143.5 333.511 142.381 334.62 141 334.62H125.5C124.119 334.62 123 333.511 123 332.143V317.774ZM125.5 353.943C124.119 353.943 123 355.052 123 356.421V370.789C123 372.157 124.119 373.266 125.5 373.266H141C142.381 373.266 143.5 372.157 143.5 370.789V356.421C143.5 355.052 142.381 353.943 141 353.943H125.5ZM123 395.067C123 393.699 124.119 392.59 125.5 392.59H141C142.381 392.59 143.5 393.699 143.5 395.067V409.435C143.5 410.804 142.381 411.913 141 411.913H125.5C124.119 411.913 123 410.804 123 409.435V395.067Z" fill="#5F3FD0"/>
<path fill-rule="evenodd" clip-rule="evenodd" d="M174.5 347.007C174.5 340.713 179.649 335.611 186 335.611H300.5C306.851 335.611 312 340.713 312 347.007V445.604C312 451.898 306.851 457 300.5 457H210C190.394 457 174.5 441.25 174.5 421.822V347.007ZM292.5 351.961C292.5 350.593 291.381 349.484 290 349.484H275.5C274.119 349.484 273 350.593 273 351.961V367.321C273 368.689 274.119 369.798 275.5 369.798H290C291.381 369.798 292.5 368.689 292.5 367.321V351.961ZM251 349.484C252.381 349.484 253.5 350.593 253.5 351.961V367.321C253.5 368.689 252.381 369.798 251 369.798H236.5C235.119 369.798 234 368.689 234 367.321V351.961C234 350.593 235.119 349.484 236.5 349.484H251ZM214.5 351.961C214.5 350.593 213.381 349.484 212 349.484H197.5C196.119 349.484 195 350.593 195 351.961V367.321C195 368.689 196.119 369.798 197.5 369.798H212C213.381 369.798 214.5 368.689 214.5 367.321V351.961ZM290 423.308C291.381 423.308 292.5 424.418 292.5 425.786V441.145C292.5 442.513 291.381 443.622 290 443.622H275.5C274.119 443.622 273 442.513 273 441.145V425.786C273 424.418 274.119 423.308 275.5 423.308H290ZM253.5 425.786C253.5 424.418 252.381 423.308 251 423.308H236.5C235.119 423.308 234 424.418 234 425.786V441.145C234 442.513 235.119 443.622 236.5 443.622H251C252.381 443.622 253.5 442.513 253.5 441.145V425.786ZM212 423.308C213.381 423.308 214.5 424.418 214.5 425.786V441.145C214.5 442.513 213.381 443.622 212 443.622H197.5C196.119 443.622 195 442.513 195 441.145V425.786C195 424.418 196.119 423.308 197.5 423.308H212Z" fill="#5F3FD0"/>
<path d="M393.72 320.52V420.84C393.72 424.893 394.147 427.773 395 429.48C395.853 431.08 397.24 432.307 399.16 433.16L403.48 434.6C405.4 435.667 406.84 436.947 407.8 438.44C408.867 439.933 409.4 441.8 409.4 444.04C409.4 446.92 408.547 449.16 406.84 450.76C405.133 452.253 402.733 453 399.64 453H347.96C344.867 453 342.467 452.253 340.76 450.76C339.053 449.16 338.2 446.92 338.2 444.04C338.2 441.8 338.68 439.933 339.64 438.44C340.707 436.947 342.2 435.667 344.12 434.6L348.44 433.16C350.467 432.307 351.853 431.08 352.6 429.48C353.453 427.773 353.88 424.893 353.88 420.84V352.68C353.88 349.16 353.453 346.707 352.6 345.32C351.747 343.827 350.36 342.76 348.44 342.12L342.04 341.48C339.907 340.413 338.36 339.24 337.4 337.96C336.44 336.68 335.96 335.08 335.96 333.16C335.96 331.027 336.653 329.16 338.04 327.56C339.427 325.96 341.827 324.467 345.24 323.08L368.44 314.28C372.6 312.68 375.8 311.613 378.04 311.08C380.387 310.547 382.573 310.28 384.6 310.28C387.587 310.28 389.827 311.24 391.32 313.16C392.92 314.973 393.72 317.427 393.72 320.52ZM372.12 289C364.44 289 358.253 286.813 353.56 282.44C348.973 278.067 346.68 272.253 346.68 265C346.68 257.747 348.973 251.933 353.56 247.56C358.253 243.187 364.44 241 372.12 241C379.907 241 386.093 243.187 390.68 247.56C395.267 251.933 397.56 257.747 397.56 265C397.56 272.253 395.267 278.067 390.68 282.44C386.093 286.813 379.907 289 372.12 289ZM490.97 320.52V420.84C490.97 425.107 491.343 428.2 492.09 430.12C492.837 431.933 494.223 433.267 496.25 434.12L500.73 435.72C504.037 437.747 505.69 440.52 505.69 444.04C505.69 450.013 502.703 453 496.73 453H445.21C442.117 453 439.717 452.253 438.01 450.76C436.303 449.16 435.45 446.92 435.45 444.04C435.45 441.8 435.93 439.987 436.89 438.6C437.957 437.107 439.45 435.773 441.37 434.6L445.69 433.16C447.717 432.413 449.103 431.187 449.85 429.48C450.703 427.773 451.13 424.893 451.13 420.84V352.68C451.13 349.16 450.703 346.707 449.85 345.32C448.997 343.827 447.61 342.76 445.69 342.12L439.29 341.48C437.157 340.413 435.61 339.24 434.65 337.96C433.69 336.68 433.21 335.08 433.21 333.16C433.21 331.027 433.903 329.16 435.29 327.56C436.677 325.96 439.077 324.467 442.49 323.08L465.69 314.28C469.85 312.68 473.05 311.613 475.29 311.08C477.637 310.547 479.823 310.28 481.85 310.28C484.837 310.28 487.077 311.24 488.57 313.16C490.17 314.973 490.97 317.427 490.97 320.52ZM486.81 356.68L478.65 346.92L485.05 340.52C495.93 329.427 505.637 321.48 514.17 316.68C522.703 311.773 531.183 309.32 539.61 309.32C550.703 309.32 558.97 312.68 564.41 319.4C569.957 326.013 573.423 335.08 574.81 346.6L584.09 420.84C584.623 424.893 585.157 427.773 585.69 429.48C586.33 431.08 587.61 432.307 589.53 433.16L593.85 434.6C595.77 435.773 597.263 437.107 598.33 438.6C599.397 439.987 599.93 441.8 599.93 444.04C599.93 446.92 599.077 449.16 597.37 450.76C595.663 452.253 593.263 453 590.17 453H538.33C532.357 453 529.37 450.013 529.37 444.04C529.37 440.413 531.023 437.64 534.33 435.72L538.97 434.12C540.997 433.267 542.49 431.987 543.45 430.28C544.41 428.573 544.677 425.747 544.25 421.8L535.93 361.64C534.97 354.067 532.997 348.413 530.01 344.68C527.13 340.84 522.81 338.92 517.05 338.92C513.103 338.92 509.05 339.933 504.89 341.96C500.837 343.987 496.463 347.293 491.77 351.88L486.81 356.68ZM724.605 433.32V424.52L723.645 423.56V352.68C723.645 349.16 723.218 346.707 722.365 345.32C721.512 343.827 720.072 342.76 718.045 342.12L711.805 341.48C709.565 340.413 707.965 339.24 707.005 337.96C706.152 336.68 705.725 335.08 705.725 333.16C705.725 331.027 706.365 329.16 707.645 327.56C709.032 325.96 711.432 324.467 714.845 323.08L738.205 314.28C742.365 312.68 745.565 311.613 747.805 311.08C750.152 310.547 752.285 310.28 754.205 310.28C757.192 310.28 759.485 311.24 761.085 313.16C762.685 314.973 763.485 317.427 763.485 320.52V420.84C763.485 424.893 763.912 427.773 764.765 429.48C765.618 431.187 767.005 432.413 768.925 433.16L773.245 434.6C775.165 435.773 776.605 437.107 777.565 438.6C778.632 439.987 779.165 441.8 779.165 444.04C779.165 446.92 778.312 449.16 776.605 450.76C774.898 452.253 772.498 453 769.405 453H744.445C737.938 453 732.978 451.24 729.565 447.72C726.258 444.093 724.605 439.293 724.605 433.32ZM635.485 412.36V352.68C635.485 349.16 635.058 346.707 634.205 345.32C633.352 343.827 631.912 342.76 629.885 342.12L623.645 341.48C621.405 340.413 619.805 339.24 618.845 337.96C617.992 336.68 617.565 335.08 617.565 333.16C617.565 331.027 618.205 329.16 619.485 327.56C620.872 325.96 623.272 324.467 626.685 323.08L650.045 314.28C654.205 312.68 657.405 311.613 659.645 311.08C661.992 310.547 664.125 310.28 666.045 310.28C669.032 310.28 671.325 311.24 672.925 313.16C674.525 314.973 675.325 317.427 675.325 320.52V402.12C675.325 410.333 677.085 416.573 680.605 420.84C684.232 425.107 689.032 427.24 695.005 427.24C699.272 427.24 703.698 426.173 708.285 424.04C712.872 421.907 717.672 418.44 722.685 413.64L727.645 408.84L735.965 419.24L729.725 425.8C718.952 436.893 708.978 444.84 699.805 449.64C690.632 454.44 681.725 456.84 673.085 456.84C661.778 456.84 652.658 452.947 645.725 445.16C638.898 437.267 635.485 426.333 635.485 412.36ZM860.783 320.52V420.84C860.783 425.107 861.156 428.2 861.903 430.12C862.649 431.933 864.036 433.267 866.063 434.12L870.543 435.72C873.849 437.747 875.503 440.52 875.503 444.04C875.503 450.013 872.516 453 866.543 453H815.023C811.929 453 809.529 452.253 807.823 450.76C806.116 449.16 805.263 446.92 805.263 444.04C805.263 441.8 805.743 439.987 806.703 438.6C807.769 437.107 809.263 435.773 811.183 434.6L815.503 433.16C817.529 432.413 818.916 431.187 819.663 429.48C820.516 427.773 820.943 424.893 820.943 420.84V352.68C820.943 349.16 820.516 346.707 819.663 345.32C818.809 343.827 817.423 342.76 815.503 342.12L809.103 341.48C806.969 340.413 805.423 339.24 804.463 337.96C803.503 336.68 803.023 335.08 803.023 333.16C803.023 331.027 803.716 329.16 805.103 327.56C806.489 325.96 808.889 324.467 812.303 323.08L835.503 314.28C839.663 312.68 842.863 311.613 845.102 311.08C847.449 310.547 849.636 310.28 851.663 310.28C854.649 310.28 856.889 311.24 858.383 313.16C859.983 314.973 860.783 317.427 860.783 320.52ZM856.623 357.32L848.463 347.56L854.703 341C865.689 329.587 875.769 321.48 884.943 316.68C894.223 311.773 903.129 309.32 911.663 309.32C923.289 309.32 932.569 313.213 939.503 321C946.436 328.787 949.903 339.72 949.903 353.8V420.84C949.903 425.107 950.276 428.2 951.023 430.12C951.769 431.933 953.156 433.267 955.183 434.12L959.662 435.72C962.969 437.747 964.623 440.52 964.623 444.04C964.623 450.013 961.636 453 955.663 453H904.303C898.329 453 895.343 450.013 895.343 444.04C895.343 440.52 896.996 437.747 900.303 435.72L904.783 434.12C906.809 433.267 908.196 431.933 908.943 430.12C909.689 428.2 910.063 425.107 910.063 420.84V364.04C910.063 355.827 908.249 349.587 904.623 345.32C900.996 341.053 896.089 338.92 889.903 338.92C885.529 338.92 880.943 339.987 876.143 342.12C871.449 344.253 866.649 347.72 861.743 352.52L856.623 357.32ZM945.743 356.04L937.423 346.28L943.983 339.88C954.649 328.893 964.089 321.053 972.303 316.36C980.623 311.667 988.783 309.32 996.783 309.32C1008.09 309.32 1016.57 312.787 1022.22 319.72C1027.88 326.547 1031.45 336.093 1032.94 348.36L1042.06 420.84C1042.6 424.893 1043.13 427.773 1043.66 429.48C1044.3 431.08 1045.58 432.307 1047.5 433.16L1051.82 434.6C1053.74 435.773 1055.24 437.107 1056.3 438.6C1057.37 439.987 1057.9 441.8 1057.9 444.04C1057.9 446.92 1057.05 449.16 1055.34 450.76C1053.64 452.253 1051.24 453 1048.14 453H996.303C990.329 453 987.343 450.013 987.343 444.04C987.343 440.627 988.996 437.853 992.303 435.72L996.943 434.12C998.969 433.267 1000.46 431.987 1001.42 430.28C1002.38 428.573 1002.6 425.747 1002.06 421.8L994.063 364.04C992.889 355.72 990.756 349.48 987.663 345.32C984.676 341.053 980.143 338.92 974.063 338.92C970.756 338.92 967.236 339.88 963.503 341.8C959.769 343.72 955.556 346.867 950.863 351.24L945.743 356.04Z" fill="black"/>
</svg>
