<svg width="1160" height="160" viewBox="320 490 1160 160" fill="none" xmlns="http://www.w3.org/2000/svg">
<!-- Cloud icon - orange -->
<path fill-rule="evenodd" clip-rule="evenodd" d="M334.4 576.5V594.6L403.8 628.8V610.5L356.4 587.5C354.8 586.6 353 585.9 351.3 585.3C352.9 584.7 354.6 584 356.3 583.2L403.7 560.2V542.4L334.4 576.5Z" fill="#FF5C12"/>
<path fill-rule="evenodd" clip-rule="evenodd" d="M684.4 576.5V594.6L615 628.9V610.6L662.4 587.6C664 586.7 665.8 586 667.5 585.4C665.9 584.8 664.2 584.1 662.5 583.3L615.1 560.3V542.4L684.4 576.5Z" fill="#FF5C12"/>
<path fill-rule="evenodd" clip-rule="evenodd" d="M556.1 640.9C585 640.9 609.3 618 610.3 589.7C610.8 575.1 605.5 561.3 595.4 550.9C585.3 540.4 571.7 534.6 557.1 534.6H557C551.4 513.2 532 498 509.2 498C489.7 498 472.1 509.4 464.1 527.2C449 527.5 434.9 533.7 424.3 544.6C413.5 555.8 407.8 570.6 408.4 586.2C409.5 616.5 435.5 641 466.5 641H556.1V640.9ZM509.1 514.3C523.8 514.3 536.3 523.7 540.5 537.2C519.3 544.2 503.9 564.2 503.9 587.7V589.2H520.3V587.7C520.3 570 532.8 555.2 549.5 551.7L551.3 551.4C552.3 551.2 553.2 551.1 554.1 551.1C555.1 551 556.1 550.9 557 550.9C567.1 550.9 576.5 554.9 583.4 562.1C590.4 569.3 594 578.9 593.7 589C593 608.5 576.1 624.4 555.9 624.4H552.3H466.2C444 624.4 425.3 606.9 424.6 585.4C424.2 574.3 428.2 563.8 435.9 555.8C443.6 547.8 453.9 543.4 465.1 543.4C471 543.4 476.2 539.9 478.5 534.5C483.8 522.3 495.8 514.3 509.1 514.3Z" fill="#FF5C12"/>
<!-- Text "ubicloud" - white -->
<path d="M805.2 588.3C805.2 597.7 802.5 605.5 797 611.6C791.6 617.8 784.6 620.9 776.1 620.9C768.6 620.9 762.3 618.3 757.2 613.2C752.1 608.1 749.5 601.1 749.5 592.4V537.3H730.7V597.8C730.7 610.1 734.8 619.9 743.1 627.2C751.3 634.6 761.2 638.3 772.5 638.3C786.5 638.3 797.4 632.7 805.1 621.4V636.6H823.9V537.3H805.1L805.2 588.3Z" fill="white"/>
<path d="M899.2 535.6H898.6C883.7 535.8 872.3 541.7 864.3 553.2V505.4H845.5V636.6H864.3V621C872.5 632.4 884 638 898.6 638C913.2 638 924.5 633 934 623C943.5 613 948.2 600.9 948.2 586.8C948.2 572.7 943.4 560.3 934 550.3C924.6 540.5 912.9 535.6 899.2 535.6ZM920.9 611.1C914.3 617.8 906.4 621.1 897 621.1C887.6 621.1 879.8 617.7 873.2 611C866.6 604.3 863.3 596.3 863.3 587C863.3 577.7 866.6 569.6 873.1 562.8C879.7 556.1 887.6 552.7 897 552.7C906.4 552.7 914.2 556.1 920.8 562.8C927.4 569.5 930.7 577.6 930.7 587C930.7 596.3 927.4 604.4 920.9 611.1Z" fill="white"/>
<path fill-rule="evenodd" clip-rule="evenodd" d="M965.8 503C968.2 500.6 971.2 499.4 974.8 499.4C978.3 499.4 981.3 500.6 983.7 503C986.2 505.4 987.4 508.4 987.4 511.8C987.4 515.2 986.2 518 983.7 520.3C981.3 522.6 978.4 523.8 974.8 523.8C971.2 523.8 968.1 522.7 965.7 520.4C963.2 518.2 962 515.3 962 511.8C962 508.3 963.3 505.3 965.8 503ZM965.2 537.3H984V636.7H965.2V537.3Z" fill="white"/>
<path d="M1051.5 552.6C1058 552.6 1063.8 554.4 1068.9 557.9C1074 561.5 1078 566.2 1080.7 572.1L1098.1 567.6C1094.2 558.1 1088.1 550.4 1079.7 544.4C1071.3 538.5 1061.9 535.5 1051.4 535.5C1037.3 535.5 1025.3 540.5 1015.4 550.5C1005.4 560.5 1000.4 572.6 1000.4 586.9C1000.4 601.1 1005.3 612.9 1015.1 623C1024.9 633.1 1037 638.1 1051.4 638.1C1062 638.1 1071.5 635.2 1079.8 629.3C1088.1 623.4 1094.2 615.7 1098.1 606L1080.7 601.5C1078.1 607.4 1074.2 612.1 1069 615.7C1063.8 619.3 1058 621 1051.5 621C1042.3 621 1034.4 617.7 1027.9 611C1021.4 604.3 1018.1 596.3 1018.1 586.9C1018.1 577.5 1021.3 569.5 1027.8 562.7C1034.2 556.1 1042.1 552.7 1051.5 552.6Z" fill="white"/>
<path d="M1132.9 505.4H1114.1V636.6H1132.9V505.4Z" fill="white"/>
<path d="M1200.7 535.6C1186.6 535.6 1174.6 540.6 1164.6 550.6C1154.7 560.6 1149.7 572.7 1149.7 586.8C1149.7 600.9 1154.7 613 1164.6 623.1C1174.5 633.2 1186.6 638.2 1200.7 638.2C1214.8 638.2 1226.9 633.1 1236.9 623C1246.8 613 1251.7 600.9 1251.7 586.8C1251.7 572.7 1246.7 560.8 1236.8 550.7C1226.9 540.7 1214.8 535.6 1200.7 535.6ZM1224.3 610.9C1217.8 617.6 1209.9 620.9 1200.7 620.9C1191.4 620.9 1183.6 617.6 1177.1 611C1170.6 604.4 1167.3 596.3 1167.3 586.8C1167.3 577.3 1170.5 569.4 1177 562.8C1183.4 556.2 1191.3 552.9 1200.7 552.9C1210.1 552.9 1218 556.2 1224.4 562.8C1230.8 569.4 1234.1 577.4 1234.1 586.8C1234.1 596.1 1230.9 604.2 1224.3 610.9Z" fill="white"/>
<path d="M1341.3 588.3C1341.3 597.7 1338.6 605.5 1333.1 611.6C1327.7 617.8 1320.7 620.9 1312.2 620.9C1304.7 620.9 1298.4 618.3 1293.3 613.2C1288.2 608.1 1285.6 601.1 1285.6 592.4V537.3H1266.8V597.8C1266.8 610.1 1270.9 619.9 1279.2 627.2C1287.4 634.6 1297.3 638.3 1308.6 638.3C1322.6 638.3 1333.5 632.7 1341.2 621.4V636.6H1360V537.3H1341.2L1341.3 588.3Z" fill="white"/>
<path d="M1461.2 505.4V553C1453 541.4 1441.5 535.6 1426.9 535.6C1413.2 535.6 1401.5 540.5 1391.8 550.4C1382 560.4 1377.2 572.6 1377.2 586.9C1377.2 601.2 1382 612.9 1391.7 623C1401.4 633.1 1413.1 638.1 1426.9 638.1C1441.5 638.1 1453 632.4 1461.2 621.1V636.7H1480V505.4H1461.2ZM1452.4 610.9C1445.8 617.6 1437.8 621 1428.6 621C1419.4 621 1411.1 617.7 1404.6 611.1C1398.1 604.5 1394.8 596.4 1394.8 586.9C1394.8 577.4 1398.1 569.5 1404.6 562.7C1411.2 556 1419.1 552.6 1428.5 552.6C1437.9 552.6 1445.8 556 1452.4 562.7C1459 569.5 1462.2 577.5 1462.2 586.9C1462.4 596.3 1459.1 604.2 1452.4 610.9Z" fill="white"/>
</svg>
